<?xml version="1.0" encoding="UTF-8" standalone="no"?>
<svg
   xmlns:dc="http://purl.org/dc/elements/1.1/"
   xmlns:cc="http://creativecommons.org/ns#"
   xmlns:rdf="http://www.w3.org/1999/02/22-rdf-syntax-ns#"
   xmlns:svg="http://www.w3.org/2000/svg"
   xmlns="http://www.w3.org/2000/svg"
   viewBox="0 0 600.00001 122.04935">
  <path
     style="fill:#da291c;"
     d="M 93.63848,27.70275 C 81.648367,39.754232 70.346001,46.288898 60.06151,47.06764 52.15028,47.663345 43.762917,45.308063 35.151242,40.054716 28.028274,35.713438 22.533692,30.525692 19.244134,27.429758 l -0.33435,-0.315306 -0.0019,0 0.0019,0 c 5.874434,-6.288143 13.340212,-10.92145 21.65034,-13.422737 0,-0.0034 0,-0.0034 0.0019,-0.0051 l 0.0052,0.0017 c -0.0019,0 -0.0052,0.0034 -0.0074,0.0034 -0.88561,3.25252 -1.044324,6.736767 -0.497299,10.219947 0.981898,6.247936 4.197385,11.767909 8.828585,15.135768 3.620737,2.636729 7.863619,3.7403 11.947787,3.095933 4.076769,-0.641193 7.781095,-2.991176 10.416757,-6.611914 3.375265,-4.628025 4.743355,-10.866438 3.760404,-17.114366 -0.179872,-1.149077 -0.440158,-2.282275 -0.771336,-3.38902 l 0.0017,0.0034 c 5.992932,2.282266 11.5362,5.621556 16.445664,9.898292 0.998822,0.871861 1.986005,1.801909 2.947803,2.770046 l -0.0017,0.0034 z M 37.071649,76.098063 c -1.245356,7.347276 -2.950972,17.378886 -1.415706,32.541097 l -0.0052,-0.008 c -4.0355,-2.04521 -7.853032,-4.5994 -11.283316,-7.58851 C 15.013991,92.893939 8.6909323,81.802129 6.5705517,69.820484 4.5252918,58.304396 6.4404052,46.565055 11.951924,36.654057 l -0.0033,0 0.0033,-0.0017 0,0.0017 c 2.09922,2.194446 4.636487,4.714787 7.295427,7.351508 6.507167,6.446855 13.883009,13.757097 17.469885,18.955416 2.078062,3.011287 1.430522,6.820363 0.354458,13.1339 M 106.29522,29.946917 c 5.04808,-5.962256 7.28379,-8.718548 6.7992,-10.222063 -0.36821,-1.126858 -1.54373,-2.120389 -3.31178,-2.792266 -1.90242,-0.720549 -4.50952,-1.052784 -5.82047,-0.283564 -0.43699,0.254996 -1.14695,1.055958 -2.85469,2.988001 l -1.594522,1.798726 -0.0068,0 C 98.490436,20.397789 97.406968,19.364042 96.345719,18.44246 88.629176,11.714158 79.164686,7.3294994 68.974365,5.7455534 64.867971,1.3809894 59.510933,-0.64522263 54.2396,0.18113337 49.815787,0.87840437 45.916776,3.5204234 43.246192,7.6299924 32.888691,10.783052 23.509914,16.725205 16.083283,24.841701 l 0,-0.0068 C 14.423157,24.338664 10.781261,24.98304 8.5042821,26.231567 7.192271,26.95 6.443157,27.783762 6.2791504,28.716983 c -0.1259108,0.706794 0.1608273,1.81354 2.9985898,5.051255 l -0.00195,0.0034 C 1.9824805,45.392497 -1.1790459,59.144304 0.39536759,72.504632 2.0110477,86.207759 8.5171576,98.643319 18.713831,107.53537 c 3.617558,3.14782 7.585345,5.77607 11.853622,7.85413 6.156938,2.99647 12.955072,5.08824 20.218763,6.06167 15.254279,2.03471 29.993269,-1.21992 42.062737,-8.26246 l 0.02218,-0.0178 c 1.53844,-0.85391 2.097103,-2.7267 1.325767,-4.46296 L 93.967298,108.1884 C 90.831166,101.15965 81.288378,79.769559 86.603093,60.254416 88.825049,52.087133 95.235928,43.388688 100.77495,36.564101 l 0.003,0 c 5.89665,9.157649 8.91005,20.051597 8.47306,30.747678 -0.41371,10.139533 -3.75405,19.57228 -9.699375,27.49515 -0.181989,0.22219 -0.278274,0.50471 -0.258171,0.81154 0.0095,0.12803 0.03699,0.24971 0.08465,0.3608 l 0.605219,1.41041 c 0.195747,0.41901 0.638027,0.70152 1.128967,0.66766 0.32907,-0.0264 0.62533,-0.18517 0.81473,-0.42323 15.66374,-19.865375 17.54077,-47.204987 4.36773,-67.687212" />
  <path
     style="fill:#000000;"
     d="m 232.63348,53.976458 -9.02009,0 -5.80248,14.88393 -5.74111,-14.88393 -8.29212,0 11.47799,27.025341 5.19302,0 12.18479,-27.025341 z m 268.25883,19.647388 c -1.76275,1.573356 -3.22819,2.217723 -5.03643,2.217723 -3.99318,0 -6.49552,-3.271573 -6.49552,-8.191618 0,-5.387714 2.50234,-8.500568 6.7886,-8.500568 1.51516,0 3.5054,0.713142 4.74335,1.572298 l 0,12.902165 z m 8.49104,-32.575996 -8.49104,0 0,14.112593 c -2.28756,-1.097223 -4.56559,-1.685512 -7.0436,-1.685512 -7.72394,0 -13.11377,5.73582 -13.11377,14.003612 0,8.082628 5.38983,14.057586 12.65774,14.057586 2.86632,0 5.08934,-0.7597 7.49963,-2.69492 l 0,2.16059 8.49104,0 0,-39.953949 z m 80.70461,12.457765 c -3.3287,0 -6.20772,1.403007 -8.66669,4.508454 l 0,-4.016449 -8.49104,0 0,27.034849 8.49104,0 0,-16.099653 c 0,-2.279092 1.76699,-5.225828 5.68292,-5.225828 2.63461,0 4.38995,1.885488 4.38995,5.923099 l 0,15.402382 8.50586,0 0,-17.214863 c 0,-7.332454 -4.98247,-10.311991 -9.91204,-10.311991 m -29.96254,10.921442 c -0.3534,-3.705376 -2.57536,-5.905112 -5.85433,-5.905112 -3.33505,0 -5.50516,2.156355 -5.85432,5.905112 l 11.70865,0 z m 7.50809,4.454492 -19.3945,0 c 0.29944,4.803665 3.571,7.621308 8.8984,7.621308 3.40171,0 6.04055,-0.996697 10.0242,-3.866203 l 0,5.325295 c -4.86185,3.57418 -9.96283,3.57418 -12.07474,3.57418 -9.4867,0 -15.63516,-5.499883 -15.63516,-13.951779 0,-8.252978 5.90828,-14.109419 14.22792,-14.109419 7.85514,0 14.35489,5.564412 13.95388,15.406618 m -43.47415,-14.883929 -8.48787,0 0,27.004179 8.48787,0 0,-11.877951 c 0,-5.02691 2.62191,-7.67527 6.98435,-7.67527 1.3374,0 2.79649,0.574534 5.03008,1.973308 l 2.34575,-7.491165 c -2.45473,-1.810365 -3.92651,-2.45579 -5.61837,-2.45579 -2.72666,0 -6.67116,1.515162 -8.74181,6.758978 l 0,-6.236289 z m -50.24159,-12.94977 -8.48999,0 0,29.30548 c 0,5.320006 1.46332,10.886529 10.31199,11.182799 l 2.69703,-6.152714 c -3.63131,-0.696205 -4.51903,-2.342576 -4.51903,-6.445788 l 0,-27.889777 z m -15.01196,12.94977 -8.48893,0 0,27.003119 8.48893,0 0,-27.003119 z m -4.27568,-13.476691 c -2.57747,0 -4.68727,2.103452 -4.68727,4.681978 0,2.584876 2.1098,4.693617 4.68727,4.693617 2.57959,0 4.67881,-2.108741 4.67881,-4.693617 0,-2.578526 -2.09922,-4.681978 -4.67881,-4.681978 m -288.61512,3.105448 c -5.03961,-2.17011 -9.08145,-3.105448 -13.54123,-3.105448 -9.25286,0 -15.22886,4.577229 -15.22886,11.482221 0,14.35066 20.32454,11.961528 20.32454,18.524762 0,2.32988 -2.03996,3.679991 -5.85009,3.679991 -4.4037,0 -7.91545,-1.350111 -13.6481,-5.156004 l 0,8.618014 c 3.98153,2.042096 7.43932,3.866216 14.40251,3.866216 8.91639,0 15.35794,-4.453439 15.35794,-12.122369 0,-13.957056 -20.32878,-12.253557 -20.32878,-18.293044 0,-1.974366 2.27804,-3.271565 5.85221,-3.271565 3.40912,0 6.85103,0.992473 12.65986,3.569942 l 0,-7.792716 z m 260.23757,-2.578527 -8.4921,0 0,39.953949 8.4921,0 0,-15.992801 c 0,-2.487533 1.76699,-5.332694 5.68292,-5.332694 2.6346,0 4.38889,1.885488 4.38889,5.924157 l 0,15.401338 8.50798,0 0,-17.214877 c 0,-7.333512 -4.98459,-10.311991 -9.9131,-10.311991 -3.32659,0 -6.20772,1.403006 -8.66669,4.509512 l 0,-16.936593 z m -118.02076,0 -8.49316,0 0,39.953949 8.49316,0 0,-15.992801 c 0,-2.487533 1.76698,-5.332694 5.6808,-5.332694 2.63672,0 4.391,1.885488 4.391,5.924157 l 0,15.401338 8.50798,0 0,-17.214877 c 0,-7.333512 -4.98459,-10.311991 -9.9131,-10.311991 -3.32658,0 -6.20772,1.403006 -8.66668,4.509512 l 0,-16.936593 z m 43.84553,23.379207 c -0.35551,-3.705376 -2.58276,-5.905112 -5.86914,-5.905112 -3.3287,0 -5.50516,2.156355 -5.85432,5.905112 l 11.72346,0 z m 7.49752,4.454492 -19.39662,0 c 0.29309,4.803665 3.57523,7.621308 8.90264,7.621308 3.40383,0 6.04266,-0.996697 10.0316,-3.866203 l 0,5.325295 c -4.87349,3.57418 -9.96706,3.57418 -12.08109,3.57418 -9.48987,0 -15.63622,-5.499883 -15.63622,-13.951779 0,-8.252978 5.91675,-14.109419 14.23109,-14.109419 7.85197,0 14.3623,5.564412 13.9486,15.406618 M 253.99599,64.406953 c -0.35234,-3.707491 -2.58593,-5.90617 -5.85855,-5.90617 -3.34881,0 -5.50411,2.156356 -5.86702,5.90617 l 11.72557,0 z m 7.15258,4.453435 -19.39873,0 c 0.29415,4.802607 3.57312,7.621316 8.91428,7.621316 3.39324,0 6.02679,-0.996706 10.00832,-3.867269 l 0,5.326354 c -4.86291,3.57417 -9.95753,3.57417 -12.06839,3.57417 -9.4867,0 -15.63728,-5.500924 -15.63728,-13.952828 0,-8.250863 5.9104,-14.108361 14.23639,-14.108361 7.85408,0 14.35595,5.56547 13.94541,15.406618 m -69.2118,-8.203249 c -0.99036,-0.582999 -2.58064,-1.529976 -4.92639,-1.529976 -4.80049,0 -6.44156,5.100976 -6.44156,8.972469 0,3.575233 1.87808,7.318699 6.60767,7.318699 2.5288,0 3.82177,-1.057007 4.76028,-1.814589 l 0,-12.946603 z m 12.06522,16.817039 -6.0416,4.040781 c -2.62191,-0.53539 -4.38784,-1.93204 -5.27874,-3.33505 -1.56912,1.46225 -3.67892,3.33505 -8.01491,3.33505 -9.13329,0 -12.81962,-8.137644 -12.81962,-14.004674 0,-6.495517 3.97201,-14.056515 13.05346,-14.056515 3.62496,0 5.79824,1.116268 7.08803,1.824119 l 0,-1.301431 8.43603,0 0,17.631748 c 0,2.473786 0.47296,5.21314 3.57735,5.865972 m 207.27779,-8.651881 c -5.74429,2.758399 -9.25604,4.38995 -14.46599,4.38995 -8.31753,0 -14.24592,-5.091453 -14.24592,-12.242977 0,-7.084864 5.9866,-12.127646 14.47552,-12.127646 4.91898,0 9.3703,1.647422 13.77189,4.097922 l 0,-8.897346 c -3.92651,-2.349983 -8.9111,-3.521271 -14.47445,-3.521271 -15.29235,0 -24.03204,9.968117 -24.03204,20.622924 0,10.315165 7.74404,20.392276 23.27551,20.392276 5.91675,0 10.12683,-1.10675 15.69548,-3.987886 l 0,-8.725946 z m -116.1702,-9.028547 -9.83797,0 0,11.129882 c 0,2.644136 1.52891,4.343403 4.15929,4.343403 1.75323,0 3.39747,-0.410533 5.67868,-1.581821 l 0,6.144225 c -2.98588,1.22949 -5.21419,1.70669 -7.84244,1.70669 -5.62579,0 -10.48764,-2.57853 -10.48764,-10.136363 l 0,-11.606016 -3.86302,0 0,-1.636841 11.29811,-12.645044 1.05702,0 0,8.485755 9.83797,0 0,5.79613 z" />
</svg>
