<svg version="1.1" xmlns="http://www.w3.org/2000/svg" viewBox="-2517.2481655120846 -1465.472087097168 5267.712228393554 2542.848165893555"><desc>Created with Snap</desc><defs></defs><g><g transform="matrix(60.264,0,0,60.264,-2210.0482,-1158.2721)"><g display="none"><rect x="-69.333" y="-18.667" display="inline" fill="#fdc48b" width="473.333" height="236" style=""></rect></g><g display="none"><g display="inline"><g><polygon fill="#fdc48b" points="32,15.976 15.976,32 0,16.024    " style=""></polygon></g><g><polygon points="23.347,15.989 15.989,23.347 8.653,16.011    " fill="#fdc48b" style=""></polygon></g><g><polygon fill="#fdc48b" points="0,16.024 16.024,0 32,15.976    " style=""></polygon></g><g><polygon fill="#fdc48b" points="8.653,16.011 16.011,8.653 23.347,15.989    " style=""></polygon></g></g></g><g display="none"><g display="inline"><path fill="#fdc48b" d="M16,1c8.271,0,15,6.729,15,15s-6.729,15-15,15S1,24.271,1,16S7.729,1,16,1 M16,0C7.163,0,0,7.163,0,16    s7.163,16,16,16s16-7.163,16-16S24.837,0,16,0L16,0z" style=""></path></g><g display="inline"><path fill="#fdc48b" d="M13.034,6.153l2.259,2.259L16,9.119l0.707-0.707l2.259-2.259l0.744,0.744l-2.259,2.259l-0.707,0.707    l0.707,0.707l2.259,2.259l-0.744,0.744l-2.259-2.259L16,10.607l-0.707,0.707l-2.259,2.259l-0.744-0.744l2.259-2.259l0.707-0.707    l-0.707-0.707L12.29,6.897L13.034,6.153 M18.966,4.738L16,7.705l-2.966-2.966l-2.158,2.158l2.966,2.966l-2.966,2.966l2.158,2.158    L16,12.021l2.966,2.966l2.158-2.158l-2.966-2.966l2.966-2.966L18.966,4.738L18.966,4.738z" style=""></path></g><g display="inline"><path fill="#fdc48b" d="M13.034,18.427l2.259,2.259L16,21.393l0.707-0.707l2.259-2.259l0.744,0.744l-2.259,2.259l-0.707,0.707    l0.707,0.707l2.259,2.259l-0.744,0.744l-2.259-2.259L16,22.881l-0.707,0.707l-2.259,2.259l-0.744-0.744l2.259-2.259l0.707-0.707    l-0.707-0.707l-2.259-2.259L13.034,18.427 M18.966,17.013L16,19.979l-2.966-2.966l-2.158,2.158l2.966,2.966l-2.966,2.966    l2.158,2.158L16,24.295l2.966,2.966l2.158-2.158l-2.966-2.966l2.966-2.966L18.966,17.013L18.966,17.013z" style=""></path></g></g><g display="none"><g display="inline"><rect x="2" y="2" fill="#fdc48b" width="28" height="28" style=""></rect></g><g display="inline"><g><path fill="#fdc48b" d="M16,31.5C7.453,31.5,0.5,24.547,0.5,16S7.453,0.5,16,0.5S31.5,7.453,31.5,16S24.547,31.5,16,31.5z" style=""></path></g><g><g><path d="M16,1c8.271,0,15,6.729,15,15s-6.729,15-15,15S1,24.271,1,16S7.729,1,16,1 M16,0C7.163,0,0,7.163,0,16s7.163,16,16,16      s16-7.163,16-16S24.837,0,16,0L16,0z" fill="#fdc48b" style=""></path></g></g></g><g display="inline"><g><polygon fill="#fdc48b" points="16,11.314 13.034,14.28 11.582,12.829 14.549,9.863 11.582,6.896 13.034,5.445 16,8.412      18.966,5.445 20.418,6.896 17.451,9.863 20.418,12.829 18.966,14.28    " style=""></polygon></g><g><path d="M13.034,6.153l2.259,2.259L16,9.119l0.707-0.707l2.259-2.259l0.744,0.744l-2.259,2.259l-0.707,0.707l0.707,0.707     l2.259,2.259l-0.744,0.744l-2.259-2.259L16,10.607l-0.707,0.707l-2.259,2.259l-0.744-0.744l2.259-2.259l0.707-0.707l-0.707-0.707     L12.29,6.897L13.034,6.153 M18.966,4.738L16,7.705l-2.966-2.966l-2.158,2.158l2.966,2.966l-2.966,2.966l2.158,2.158L16,12.021     l2.966,2.966l2.158-2.158l-2.966-2.966l2.966-2.966L18.966,4.738L18.966,4.738z" fill="#fdc48b" style=""></path></g></g><g display="inline"><g><polygon fill="#fdc48b" points="16,23.589 13.034,26.555 11.582,25.104 14.549,22.137 11.582,19.171 13.034,17.72 16,20.686      18.966,17.72 20.418,19.171 17.451,22.137 20.418,25.104 18.966,26.555    " style=""></polygon></g><g><path d="M13.034,18.427l2.259,2.259L16,21.393l0.707-0.707l2.259-2.259l0.744,0.744l-2.259,2.259l-0.707,0.707l0.707,0.707     l2.259,2.259l-0.744,0.744l-2.259-2.259L16,22.881l-0.707,0.707l-2.259,2.259l-0.744-0.744l2.259-2.259l0.707-0.707l-0.707-0.707     l-2.259-2.259L13.034,18.427 M18.966,17.013L16,19.979l-2.966-2.966l-2.158,2.158l2.966,2.966l-2.966,2.966l2.158,2.158     L16,24.295l2.966,2.966l2.158-2.158l-2.966-2.966l2.966-2.966L18.966,17.013L18.966,17.013z" fill="#fdc48b" style=""></path></g></g></g><g><g><path d="M0,16.024L15.976,32L32,15.976L16.024,0L0,16.024z M15.989,23.347l-7.336-7.336l14.694-0.022L15.989,23.347z" fill="#fdc48b" style=""></path></g></g><desc>Created with Snap</desc><defs></defs></g><g><g transform="matrix(1.024,0,0,-1.024,0,0)"><path d="M48 608L326 608Q431 608 481 570Q532 533 532 447Q532 362 463 326Q567 289 567 172Q567 0 345 0L129 0Q117 0 109 6Q101 13 101 23L101 561L48 561Q38 561 31 567Q25 574 25 584Q25 594 31 601Q38 608 48 608ZM361 297L155 297L155 47L345 47Q430 47 471 77Q512 107 512 172Q512 297 361 297ZM326 561L155 561L155 344L349 344Q408 344 443 372Q478 400 478 454Q478 509 441 535Q404 561 326 561ZM845 36Q906 36 944 78Q983 120 983 186Q983 253 944 295Q906 338 845 338Q784 338 745 295Q707 253 707 186Q707 120 745 78Q784 36 845 36ZM706 45Q653 101 653 187Q653 273 707 328Q761 384 845 384Q929 384 982 328Q1036 273 1036 186Q1036 100 982 45Q929 -10 844 -10Q760 -10 706 45ZM1310 36Q1371 36 1409 78Q1448 120 1448 186Q1448 253 1409 295Q1371 338 1310 338Q1249 338 1210 295Q1172 253 1172 186Q1172 120 1210 78Q1249 36 1310 36ZM1171 45Q1118 101 1118 187Q1118 273 1172 328Q1226 384 1310 384Q1394 384 1447 328Q1501 273 1501 186Q1501 100 1447 45Q1394 -10 1309 -10Q1225 -10 1171 45ZM1932 105L1932 22Q1932 0 1906 0L1605 0Q1579 0 1579 25Q1579 74 1613 112Q1648 151 1714 196L1750 221Q1846 287 1863 336L1644 336L1644 280Q1644 270 1636 263Q1628 257 1617 257Q1606 257 1598 263Q1590 270 1590 280L1590 359Q1590 382 1613 382L1894 382Q1904 382 1912 375Q1920 369 1920 359Q1920 325 1896 290Q1873 256 1848 236Q1802 197 1777 180L1747 158Q1675 105 1657 84Q1640 63 1635 46L1878 46L1878 105Q1878 115 1886 121Q1894 128 1905 128Q1916 128 1924 121Q1932 115 1932 105ZM1967 -180L1999 -183Q2048 -183 2079 -142Q2103 -111 2132 -51L2166 19L2003 349Q1999 358 2003 367Q2008 376 2017 380Q2027 385 2036 385Q2046 385 2053 370L2194 74L2335 370Q2342 385 2351 385Q2375 385 2384 367Q2386 362 2386 357Q2386 353 2384 349L2180 -71Q2161 -111 2149 -131Q2138 -150 2116 -178Q2073 -229 1998 -229Q1977 -229 1966 -226Q1944 -221 1947 -201Q1950 -180 1967 -180Z" fill="#85421e" style=""></path></g></g></g></svg>